HIERARCHY
ROOT Hips
{
	OFFSET 0.000000 0.000000 0.000000
	CHANNELS 6 Xposition Yposition Zposition Zrotation Yrotation Xrotation 
	JOINT LHipJoint
	{
		OFFSET 0.000000 0.000000 0.000000
		CHANNELS 3 Zrotation Yrotation Xrotation
		JOINT LeftUpLeg
		{
			OFFSET 1.363060 -1.794630 0.839290
			CHANNELS 3 Zrotation Yrotation Xrotation
			JOINT LeftLeg
			{
				OFFSET 2.448110 -6.726130 0.000000
				CHANNELS 3 Zrotation Yrotation Xrotation
				JOINT LeftFoot
				{
					OFFSET 2.562200 -7.039590 0.000000
					CHANNELS 3 Zrotation Yrotation Xrotation
					JOINT LeftToeBase
					{
						OFFSET 0.157640 -0.433110 2.322550
						CHANNELS 3 Zrotation Yrotation Xrotation
						End Site
						{
							OFFSET 0.000000 0.000000 0.000000
						}
					}
				}
			}
		}
	}
	JOINT RHipJoint
	{
		OFFSET 0.000000 0.000000 0.000000
		CHANNELS 3 Zrotation Yrotation Xrotation
		JOINT RightUpLeg
		{
			OFFSET -1.305520 -1.794630 0.839290
			CHANNELS 3 Zrotation Yrotation Xrotation
			JOINT RightLeg
			{
				OFFSET -2.542530 -6.985550 0.000000
				CHANNELS 3 Zrotation Yrotation Xrotation
				JOINT RightFoot
				{
					OFFSET -2.568260 -7.056230 0.000000
					CHANNELS 3 Zrotation Yrotation Xrotation
					JOINT RightToeBase
					{
						OFFSET -0.164730 -0.452590 2.363150
						CHANNELS 3 Zrotation Yrotation Xrotation
						End Site
						{
							OFFSET 0.000000 0.000000 0.000000
						}
					}
				}
			}
		}
	}
	JOINT LowerBack
	{
		OFFSET 0.000000 0.000000 0.000000
		CHANNELS 3 Zrotation Yrotation Xrotation
		JOINT Spine
		{
			OFFSET 0.028270 2.035590 -0.193380
			CHANNELS 3 Zrotation Yrotation Xrotation
			JOINT Spine1
			{
				OFFSET 0.056720 2.048850 -0.042750
				CHANNELS 3 Zrotation Yrotation Xrotation
				JOINT Neck
				{
					OFFSET 0.000000 0.000000 0.000000
					CHANNELS 3 Zrotation Yrotation Xrotation
					JOINT Neck1
					{
						OFFSET -0.054170 1.746240 0.172020
						CHANNELS 3 Zrotation Yrotation Xrotation
						JOINT Head
						{
							OFFSET 0.104070 1.761360 -0.123970
							CHANNELS 3 Zrotation Yrotation Xrotation
							End Site
							{
								OFFSET 0.000000 0.000000 0.000000
							}
						}
					}
				}
				JOINT LeftShoulder
				{
					OFFSET 0.000000 0.000000 0.000000
					CHANNELS 3 Zrotation Yrotation Xrotation
					JOINT LeftArm
					{
						OFFSET 3.362410 1.200890 -0.311210
						CHANNELS 3 Zrotation Yrotation Xrotation
						JOINT LeftForeArm
						{
							OFFSET 4.983000 -0.000000 -0.000000
							CHANNELS 3 Zrotation Yrotation Xrotation
							JOINT LeftHand
							{
								OFFSET 3.483560 -0.000000 -0.000000
								CHANNELS 3 Zrotation Yrotation Xrotation
								JOINT LeftFingerBase
								{
									OFFSET 0.000000 0.000000 0.000000
									CHANNELS 3 Zrotation Yrotation Xrotation
									JOINT LeftHandIndex1
									{
										OFFSET 0.715260 -0.000000 -0.000000
										CHANNELS 3 Zrotation Yrotation Xrotation
										End Site
										{
											OFFSET 0.000000 0.000000 0.000000
										}
									}
								}
								JOINT LThumb
								{
									OFFSET 0.000000 0.000000 0.000000
									CHANNELS 3 Zrotation Yrotation Xrotation
									End Site
									{
										OFFSET 0.000000 0.000000 0.000000
									}
								}
							}
						}
					}
				}
				JOINT RightShoulder
				{
					OFFSET 0.000000 0.000000 0.000000
					CHANNELS 3 Zrotation Yrotation Xrotation
					JOINT RightArm
					{
						OFFSET -3.136600 1.374050 -0.404650
						CHANNELS 3 Zrotation Yrotation Xrotation
						JOINT RightForeArm
						{
							OFFSET -5.241900 -0.000000 -0.000000
							CHANNELS 3 Zrotation Yrotation Xrotation
							JOINT RightHand
							{
								OFFSET -3.444170 -0.000000 -0.000000
								CHANNELS 3 Zrotation Yrotation Xrotation
								JOINT RightFingerBase
								{
									OFFSET 0.000000 0.000000 0.000000
									CHANNELS 3 Zrotation Yrotation Xrotation
									JOINT RightHandIndex1
									{
										OFFSET -0.622530 -0.000000 -0.000000
										CHANNELS 3 Zrotation Yrotation Xrotation
										End Site
										{
											OFFSET 0.000000 0.000000 0.000000
										}
									}
								}
								JOINT RThumb
								{
									OFFSET 0.000000 0.000000 0.000000
									CHANNELS 3 Zrotation Yrotation Xrotation
									End Site
									{
										OFFSET 0.000000 0.000000 0.000000
									}
								}
							}
						}
					}
				}
			}
		}
	}
}
MOTION
Frames: 8
Frame Time: 0.008333
8.416421 17.031051 -32.249529 -3.592425 -9.825966 10.494637 0.750097 -2.206124 -4.577252 -12.119665 1.723173 -40.499170 -1.029927 11.930072 25.291733 -3.191307 16.732463 20.831456 0.003300 -0.368800 -1.013400 -0.006553 -2.891121 4.184559 17.737040 0.402034 9.901948 1.658662 -4.578216 16.790609 -0.918625 -4.054578 28.974521 -1.810700 8.460000 -24.120300 0.319930 5.450263 -3.640842 0.465884 6.408170 -5.177703 4.109052 3.895795 6.178024 -10.000119 -6.569958 -18.470988 7.863624 -6.443617 6.367170 6.927100 -2.899600 11.281700 -1.325259 -5.576776 -0.733843 -84.604140 18.658029 -13.897470 1.412133 -6.971434 -0.496983 1.052537 1.385164 41.759460 6.760443 -21.855679 -2.774400 -7.125000 0.000000 0.000000 -13.765100 6.791500 12.413500 -0.668737 8.491767 0.959007 70.595012 4.618116 40.757759 -30.875231 35.696839 -13.331009 2.212281 2.176589 -25.419656 -30.851704 -19.007927 12.628300 7.125000 0.000000 0.000000 -5.708500 -53.048100 1.133200
8.423667 17.022265 -32.108151 -3.334593 -9.594728 10.294867 0.743710 -2.182001 -4.474752 -12.568469 1.768168 -40.448942 -0.942500 12.111794 26.027026 -2.908088 15.781155 20.665706 0.005758 0.125761 0.345544 -0.024214 -2.849459 4.113459 17.459318 -0.054022 9.264122 1.303065 -5.246384 18.644644 -0.962208 -4.294251 29.722778 -1.613106 7.993839 -22.703564 0.016503 5.372356 -3.483940 0.463296 6.335813 -5.178904 4.207799 3.835756 6.111182 -10.059444 -6.644021 -18.542450 7.835383 -6.513203 6.362814 6.901054 -2.936838 11.341323 -1.325760 -5.608255 -0.739855 -84.572604 18.386405 -14.124244 1.490457 -7.081539 -0.518418 1.076817 1.382091 41.769815 6.715213 -22.044303 -2.770216 -7.125000 0.000000 0.000000 -13.805529 6.599554 12.505132 -0.681348 8.498103 0.947993 70.719543 4.181510 40.740060 -30.927657 35.767460 -13.389190 2.212639 2.212495 -26.023839 -31.239422 -19.085966 12.861825 7.125000 0.000000 0.000000 -6.149400 -53.211385 1.247478
8.430978 17.012967 -31.967481 -3.098945 -9.360934 10.101526 0.739295 -2.158244 -4.373946 -12.989986 1.802102 -40.393432 -0.854092 12.291522 26.753453 -2.637420 14.852826 20.467345 0.008608 0.593516 1.630870 -0.042814 -2.805886 4.040506 17.209619 -0.514410 8.627485 0.944365 -5.912400 20.496546 -1.005083 -4.537431 30.463496 -1.422291 7.540551 -21.327592 -0.258779 5.296678 -3.325481 0.461073 6.264835 -5.180694 4.294223 3.777712 6.039535 -10.111622 -6.713169 -18.601405 7.815414 -6.579485 6.354696 6.880770 -2.971256 11.394029 -1.327565 -5.639711 -0.745315 -84.533183 18.113359 -14.229299 1.569183 -7.195843 -0.539660 1.097624 1.380086 41.668195 6.669214 -22.222091 -2.764292 -7.125000 0.000000 0.000000 -13.846441 6.419529 12.593988 -0.694164 8.505630 0.937692 70.848748 3.748798 40.716186 -30.969696 35.831764 -13.442718 2.213430 2.253413 -26.624619 -31.632522 -19.215819 13.133827 7.125000 0.000000 0.000000 -6.595781 -53.439431 1.375440
8.438965 16.998361 -31.834147 -3.093199 -9.100645 9.974824 0.755306 -2.138291 -4.290699 -13.128717 1.721407 -40.283184 -0.755514 12.450588 27.387993 -2.496828 14.162649 19.931020 0.015511 0.783474 2.153255 -0.071142 -2.742514 3.948361 17.250333 -1.019680 8.003172 0.553510 -6.556115 22.326339 -1.040614 -4.816948 31.126081 -1.301737 7.220677 -20.374087 -0.242387 5.244093 -3.150886 0.462639 6.208159 -5.188589 4.252924 3.740350 5.918083 -10.089719 -6.731379 -18.530739 7.881158 -6.611524 6.307595 6.920205 -2.976433 11.375044 -1.342884 -5.670935 -0.745048 -84.412036 17.825569 -13.072912 1.652074 -7.353667 -0.558901 1.082439 1.389157 40.406107 6.615238 -22.287576 -2.740338 -7.125000 0.000000 0.000000 -13.892362 6.363044 12.654082 -0.709104 8.525493 0.934773 71.026390 3.356428 40.628315 -30.904089 35.830592 -13.448029 2.218709 2.346270 -27.190143 -32.081399 -19.882643 13.804591 7.125000 0.000000 0.000000 -7.098971 -54.338646 1.645210
8.447826 16.988234 -31.700281 -3.062195 -8.867380 9.835409 0.763666 -2.113856 -4.201668 -13.284666 1.636099 -40.136843 -0.661652 12.598910 27.996316 -2.376377 13.518174 19.347884 0.022065 0.957351 2.631465 -0.099736 -2.685821 3.853653 17.250547 -1.418403 7.416522 0.145538 -7.207186 24.165836 -1.025716 -5.274436 31.666949 -1.143571 6.759210 -19.015047 -0.243743 5.197407 -2.968664 0.459832 6.160474 -5.194705 4.196643 3.707817 5.799434 -10.045317 -6.742002 -18.459031 7.939441 -6.640765 6.261115 6.948208 -2.979319 11.351474 -1.357669 -5.702975 -0.744099 -84.285416 17.543411 -11.841411 1.743283 -7.524825 -0.578978 1.061070 1.400298 39.063603 6.605788 -22.330842 -2.733662 -7.125000 0.000000 0.000000 -13.908789 6.325751 12.680339 -0.723600 8.544983 0.931241 71.221567 2.987433 40.509567 -30.812106 35.807876 -13.434454 2.220639 2.439797 -27.695621 -32.442274 -20.582481 14.454505 7.125000 0.000000 0.000000 -7.495816 -55.262384 1.895520
8.460777 16.999074 -31.563923 -2.912938 -8.760639 9.636474 0.736209 -2.068441 -4.085560 -13.521226 1.529188 -39.821524 -0.589872 12.696929 28.481896 -2.350220 13.087677 18.545590 0.026982 1.055939 2.902856 -0.129576 -2.660395 3.746940 17.061141 -1.318292 7.006205 -0.342568 -7.892701 26.050764 -0.774713 -6.565144 31.637954 -0.809313 5.634838 -15.757359 -0.328196 5.178340 -2.750734 0.436546 6.154886 -5.192488 4.070219 3.697893 5.693907 -9.895574 -6.717105 -18.382448 7.962787 -6.656909 6.217547 6.922685 -2.971474 11.306443 -1.369958 -5.738837 -0.739948 -84.133169 17.287618 -10.258239 1.873435 -7.758413 -0.602971 1.010749 1.421131 37.344609 6.804808 -22.270079 -2.807877 -7.125000 0.000000 0.000000 -13.787136 6.378314 12.548174 -0.736014 8.562720 0.924842 71.498832 2.727868 40.246257 -30.596636 35.684295 -13.332458 2.206891 2.536466 -27.919973 -32.391136 -21.436880 15.006806 7.125000 0.000000 0.000000 -7.394770 -56.300930 2.054725
8.473713 17.010004 -31.427972 -2.697400 -8.693030 9.447350 0.699316 -2.025104 -3.966198 -13.826381 1.451478 -39.515655 -0.528697 12.780666 28.928321 -2.322011 12.678342 17.788147 0.028860 1.092407 3.003255 -0.157968 -2.632271 3.640916 16.798852 -1.249565 6.509329 -0.838979 -8.567878 27.956012 -0.567827 -7.682006 31.668787 -0.549244 4.745249 -13.183792 -0.510811 5.159878 -2.541721 0.413493 6.151841 -5.196216 4.007494 3.685628 5.558964 -9.808927 -6.711493 -18.308367 7.982063 -6.676447 6.184950 6.905985 -2.971831 11.283076 -1.378281 -5.779765 -0.742567 -84.049262 17.059151 -8.712847 2.013831 -8.006613 -0.629167 0.955598 1.444808 35.614117 7.085970 -22.217740 -2.919042 -7.125000 0.000000 0.000000 -13.611910 6.413672 12.369367 -0.751400 8.586519 0.916915 71.754497 2.420424 39.997330 -30.414001 35.576715 -13.244199 2.189504 2.620000 -28.134683 -32.281505 -22.161091 15.438181 7.125000 0.000000 0.000000 -7.223444 -57.168898 2.159501
8.486607 17.021187 -31.293155 -2.297080 -8.734518 9.285577 0.636117 -1.987558 -3.837764 -14.322768 1.455176 -39.236129 -0.497087 12.824585 29.265584 -2.288083 12.328003 17.155740 0.022270 0.955692 2.626947 -0.182325 -2.596626 3.536813 16.333373 -1.268334 5.771140 -1.358545 -9.214238 29.917909 -0.483933 -8.314201 31.866416 -0.496001 4.510207 -12.517474 -0.967089 5.143100 -2.357565 0.391091 6.155888 -5.216519 4.122352 3.666834 5.342013 -9.898186 -6.759649 -18.241266 7.989992 -6.705451 6.182939 6.913882 -2.995052 11.320105 -1.375547 -5.834813 -0.764053 -84.155877 16.906864 -7.272785 2.182785 -8.295550 -0.661506 0.886980 1.476417 33.851572 7.596132 -22.188887 -3.133215 -7.125000 0.000000 0.000000 -13.287329 6.401068 12.060528 -0.775071 8.627219 0.904724 71.949939 1.979496 39.788496 -30.322907 35.513745 -13.194235 2.161970 2.666914 -28.322511 -32.008803 -22.522356 15.532428 7.125000 0.000000 0.000000 -6.856184 -57.561314 2.112534
